<?xml version="1.0" encoding="UTF-8"?>
<svg xmlns="http://www.w3.org/2000/svg" xmlns:xlink="http://www.w3.org/1999/xlink" width="500" zoomAndPan="magnify" viewBox="0 0 375 374.999991" height="500" preserveAspectRatio="xMidYMid meet" version="1.0">
  <defs>
    <g></g>
  </defs>
  <g fill="#0a1420" fill-opacity="1">
    <g transform="translate(66.308093, 231.512278)">
      <g>
        <path d="M 95.3125 -19.625 L 98.71875 -19.625 L 98.71875 0 C 97.832031 0.375 96.851562 0.71875 95.78125 1.03125 C 94.71875 1.351562 93.554688 1.515625 92.296875 1.515625 C 87.265625 1.515625 82.734375 0.351562 78.703125 -1.96875 C 74.679688 -4.300781 71.472656 -7.421875 69.078125 -11.328125 C 66.054688 -7.421875 62.375 -4.300781 58.03125 -1.96875 C 53.695312 0.351562 48.757812 1.515625 43.21875 1.515625 C 36.300781 1.515625 30.007812 -0.242188 24.34375 -3.765625 C 18.6875 -7.296875 14.1875 -12.015625 10.84375 -17.921875 C 7.507812 -23.835938 5.84375 -30.445312 5.84375 -37.75 C 5.84375 -45.050781 7.507812 -51.65625 10.84375 -57.5625 C 14.1875 -63.476562 18.6875 -68.195312 24.34375 -71.71875 C 30.007812 -75.25 36.300781 -77.015625 43.21875 -77.015625 C 47.625 -77.015625 51.617188 -76.289062 55.203125 -74.84375 C 58.796875 -73.394531 61.972656 -71.410156 64.734375 -68.890625 L 64.734375 -75.5 L 88.71875 -75.5 L 88.71875 -26.984375 C 88.71875 -23.835938 89.40625 -21.820312 90.78125 -20.9375 C 92.164062 -20.0625 93.675781 -19.625 95.3125 -19.625 Z M 47.9375 -19.8125 C 52.84375 -19.8125 57.054688 -21.539062 60.578125 -25 C 64.109375 -28.46875 65.875 -32.71875 65.875 -37.75 C 65.875 -42.78125 64.109375 -47.023438 60.578125 -50.484375 C 57.054688 -53.953125 52.84375 -55.6875 47.9375 -55.6875 C 42.90625 -55.6875 38.660156 -53.953125 35.203125 -50.484375 C 31.742188 -47.023438 30.015625 -42.78125 30.015625 -37.75 C 30.015625 -32.71875 31.742188 -28.46875 35.203125 -25 C 38.660156 -21.539062 42.90625 -19.8125 47.9375 -19.8125 Z M 47.9375 -19.8125 "></path>
      </g>
    </g>
  </g>
  <g fill="#0a1420" fill-opacity="1">
    <g transform="translate(167.850545, 231.512278)">
      <g>
        <path d="M 23.59375 -88.140625 C 20.070312 -88.140625 16.988281 -89.460938 14.34375 -92.109375 C 11.695312 -94.753906 10.375 -97.835938 10.375 -101.359375 C 10.375 -105.003906 11.695312 -108.117188 14.34375 -110.703125 C 16.988281 -113.285156 20.070312 -114.578125 23.59375 -114.578125 C 27.238281 -114.578125 30.351562 -113.285156 32.9375 -110.703125 C 35.519531 -108.117188 36.8125 -105.003906 36.8125 -101.359375 C 36.8125 -97.835938 35.519531 -94.753906 32.9375 -92.109375 C 30.351562 -89.460938 27.238281 -88.140625 23.59375 -88.140625 Z M 11.515625 0 L 11.515625 -75.5 L 35.484375 -75.5 L 35.484375 0 Z M 11.515625 0 "></path>
      </g>
    </g>
  </g>
  <g fill="#0a1420" fill-opacity="1">
    <g transform="translate(215.035693, 231.512278)">
      <g>
        <path d="M 47.9375 1.515625 C 39.507812 1.515625 32.148438 -0.179688 25.859375 -3.578125 C 19.566406 -6.984375 14.65625 -11.640625 11.125 -17.546875 C 7.601562 -23.460938 5.84375 -30.195312 5.84375 -37.75 C 5.84375 -45.300781 7.601562 -52.03125 11.125 -57.9375 C 14.65625 -63.851562 19.566406 -68.507812 25.859375 -71.90625 C 32.148438 -75.3125 39.507812 -77.015625 47.9375 -77.015625 C 59.269531 -77.015625 68.582031 -74.023438 75.875 -68.046875 C 83.175781 -62.066406 87.644531 -54.359375 89.28125 -44.921875 L 64.359375 -44.921875 C 63.097656 -48.191406 61.019531 -50.769531 58.125 -52.65625 C 55.238281 -54.550781 51.84375 -55.5625 47.9375 -55.6875 C 42.78125 -55.5625 38.503906 -53.828125 35.109375 -50.484375 C 31.710938 -47.148438 30.015625 -42.90625 30.015625 -37.75 C 30.015625 -32.71875 31.710938 -28.5 35.109375 -25.09375 C 38.503906 -21.695312 42.78125 -19.9375 47.9375 -19.8125 C 51.84375 -19.9375 55.238281 -20.972656 58.125 -22.921875 C 61.019531 -24.878906 63.097656 -27.429688 64.359375 -30.578125 L 89.28125 -30.578125 C 87.644531 -21.140625 83.175781 -13.429688 75.875 -7.453125 C 68.582031 -1.472656 59.269531 1.515625 47.9375 1.515625 Z M 47.9375 1.515625 "></path>
      </g>
    </g>
  </g>
</svg>
