<svg width="60" height="60" viewBox="0 0 60 60" fill="none" xmlns="http://www.w3.org/2000/svg">
<g clip-path="url(#clip0_2744_18817)">
<path d="M49.0657 30.3741C49.0657 28.7353 48.9327 27.5395 48.6449 26.2993H29.9316V33.696H40.9159C40.6945 35.5341 39.4987 38.3024 36.8411 40.1625L36.8039 40.4102L42.7206 44.9938L43.1306 45.0347C46.8953 41.5578 49.0657 36.4421 49.0657 30.3741Z" fill="#4285F4"/>
<path d="M29.9303 49.8624C35.3117 49.8624 39.8294 48.0906 43.1293 45.0346L36.8398 40.1624C35.1568 41.3361 32.8978 42.1555 29.9303 42.1555C24.6597 42.1555 20.1862 38.6787 18.5916 33.873L18.3578 33.8929L12.2055 38.6543L12.125 38.8779C15.4026 45.3888 22.1349 49.8624 29.9303 49.8624Z" fill="#34A853"/>
<path d="M18.5925 33.8732C18.1718 32.633 17.9282 31.3042 17.9282 29.9312C17.9282 28.558 18.1718 27.2293 18.5704 25.9892L18.5592 25.7251L12.3298 20.8872L12.126 20.9842C10.7751 23.686 10 26.72 10 29.9312C10 33.1423 10.7751 36.1762 12.126 38.878L18.5925 33.8732Z" fill="#FBBC05"/>
<path d="M29.9303 17.7067C33.6729 17.7067 36.1975 19.3234 37.6371 20.6744L43.2621 15.1821C39.8074 11.971 35.3117 10 29.9303 10C22.1349 10 15.4026 14.4734 12.125 20.9843L18.5694 25.9893C20.1862 21.1837 24.6597 17.7067 29.9303 17.7067Z" fill="#EB4335"/>
</g>
<defs>
<clipPath id="clip0_2744_18817">
<rect width="39.084" height="40" fill="white" transform="translate(10 10)"/>
</clipPath>
</defs>
</svg>
